<?xml version="1.0" encoding="utf-8"?>
<!-- Generator: Adobe Illustrator 21.0.0, SVG Export Plug-In . SVG Version: 6.00 Build 0)  -->
<svg version="1.1" id="Layer_1" xmlns="http://www.w3.org/2000/svg" xmlns:xlink="http://www.w3.org/1999/xlink" x="0px" y="0px"
	 width="1000px" height="642px" viewBox="0 0 1000 642" style="enable-background:new 0 0 1000 642;" xml:space="preserve">
<style type="text/css">
	.st0{display:none;}
	.st1{fill:#4E6D59;}
	.st2{fill:#FFFFFF;}
</style>
<g class="st0">
</g>
<g>
	<polygon class="st1" points="304.3,150 358.3,476.5 979,476.5 925.1,150 	"/>
	<g>
		<polygon class="st2" points="424.9,623.5 25.7,623.5 125.2,11.3 335.1,11.3 335.1,54.8 162.3,54.8 76.8,579.9 424.9,579.9 		"/>
	</g>
	<g>
		<path class="st2" d="M552,394h-43.4l-54.9-96v96h-41.1V234H456l54.9,96v-96H552V394z"/>
		<path class="st2" d="M716.5,390.6c-35.7,3.8-68.4,5.7-98.3,5.7c-14.9,0-25.9-3.5-32.9-10.5s-10.5-18-10.5-32.9v-73.1
			c0-16,3.6-27.6,10.9-34.9c7.2-7.2,18.9-10.9,34.9-10.9h82.3v32h-73.1c-9.1,0-13.7,4.6-13.7,13.7v73.1c0,3.5,1,6.3,3.1,8.3
			c2.1,2.1,4.8,3.1,8.3,3.1c17.5,0,33.5-0.4,48-1.1V330h-29.7v-27.4h70.9v88H716.5z"/>
		<path class="st2" d="M734.6,360.9c41.7,2.3,70,3.4,84.8,3.4c3.5,0,6.3-1,8.3-3.1c2.1-2.1,3.1-4.8,3.1-8.3v-20.6h-52.6
			c-16,0-27.6-3.6-34.9-10.9c-7.2-7.2-10.9-18.9-10.9-34.9v-6.9c0-16,3.6-27.6,10.9-34.9c7.2-7.2,18.9-10.9,34.9-10.9h80.2v32h-71.1
			c-9.1,0-13.7,4.6-13.7,13.7v4.6c0,9.1,4.6,13.7,13.7,13.7h41.1c14.9,0,25.9,3.5,32.9,10.5s10.5,18,10.5,32.9v11.4
			c0,14.9-3.5,25.9-10.5,32.9s-18,10.5-32.9,10.5c-7.8,0-16-0.2-24.7-0.5l-21-0.9c-15.5-0.8-31.6-1.8-48.2-3.2v-30.5H734.6z"/>
	</g>
</g>
</svg>
